<?xml version="1.0" encoding="utf-8"?>
<!-- Generator: Adobe Illustrator 24.0.2, SVG Export Plug-In . SVG Version: 6.00 Build 0)  -->
<svg version="1.1" id="Layer_1" xmlns="http://www.w3.org/2000/svg" xmlns:xlink="http://www.w3.org/1999/xlink" x="0px" y="0px"
	 viewBox="0 0 59 27" style="enable-background:new 0 0 59 27;" xml:space="preserve">
<style type="text/css">
	.st0{fill:#0D8DC8;}
	.st1{fill:#F2B92A;}
	.st2{fill:#AFC536;}
	.st3{fill:#19A6DF;}
	.st4{fill-rule:evenodd;clip-rule:evenodd;fill:#19A6DF;}
	.st5{fill:#FFFFFF;}
</style>
<path class="st0" d="M9.4,16.7c0.8,0.7,1.2,1.9,1.2,3.4l0,5.9h-3l0-5.4c0-0.8-0.2-1.4-0.5-1.8c-0.4-0.4-0.9-0.6-1.5-0.6
	c-0.7,0-1.4,0.2-1.8,0.7c-0.4,0.5-0.7,1.2-0.7,2.1l0,5.1l-3,0L0.1,11.7l3,0l0,5.1c0.4-0.4,0.9-0.7,1.4-0.9c0.6-0.2,1.2-0.3,1.8-0.3
	C7.6,15.6,8.6,16,9.4,16.7z"/>
<path class="st1" d="M23.4,21.6l-7.8,0c0.1,0.6,0.5,1.1,1,1.5c0.5,0.4,1.2,0.5,2,0.5c0.5,0,1-0.1,1.4-0.2c0.4-0.2,0.8-0.4,1.1-0.7
	l1.6,1.7c-1,1.1-2.4,1.7-4.2,1.7c-1.2,0-2.2-0.2-3.1-0.7c-0.9-0.4-1.6-1.1-2.1-1.9c-0.5-0.8-0.7-1.7-0.7-2.7c0-1,0.2-1.9,0.7-2.7
	c0.5-0.8,1.1-1.4,2-1.9c0.8-0.5,1.8-0.7,2.8-0.7c1,0,1.9,0.2,2.7,0.6c0.8,0.4,1.5,1,1.9,1.9c0.5,0.8,0.7,1.7,0.7,2.8
	C23.4,20.9,23.4,21.1,23.4,21.6z M16.4,18.4c-0.5,0.4-0.7,0.9-0.8,1.6l5.1,0c-0.1-0.6-0.4-1.2-0.9-1.5c-0.5-0.4-1-0.6-1.7-0.6
	C17.4,17.8,16.9,18,16.4,18.4z"/>
<path class="st2" d="M28.3,11.8l-3,0l0.1,14.3l3,0L28.3,11.8z"/>
<path class="st3" d="M33.3,11.8l-3,0l0.1,14.3l3,0L33.3,11.8z"/>
<path class="st1" d="M38.1,25.3c-0.9-0.4-1.5-1.1-2-1.9c-0.5-0.8-0.7-1.7-0.7-2.7s0.2-1.9,0.7-2.7c0.5-0.8,1.1-1.4,2-1.9
	c0.9-0.5,1.8-0.7,2.9-0.7s2,0.2,2.9,0.7c0.9,0.4,1.5,1.1,2,1.9c0.5,0.8,0.7,1.7,0.7,2.7c0,1-0.2,1.9-0.7,2.7c-0.5,0.8-1.1,1.4-2,1.9
	c-0.9,0.5-1.8,0.7-2.9,0.7S39,25.8,38.1,25.3z M42.9,22.8c0.5-0.5,0.7-1.2,0.7-2.1s-0.2-1.6-0.7-2.1c-0.5-0.5-1.1-0.8-1.9-0.8
	c-0.8,0-1.4,0.3-1.9,0.8c-0.5,0.5-0.7,1.2-0.7,2.1s0.2,1.6,0.7,2.1c0.5,0.5,1.1,0.8,1.9,0.8C41.8,23.5,42.4,23.3,42.9,22.8z"/>
<path class="st4" d="M58.9,1.7c0-0.9-0.8-1.7-1.7-1.7L37.1,0.1c-0.9,0-1.7,0.8-1.7,1.7l0,8.2c0,0.9,0.8,1.7,1.7,1.7l3,0l0,2.5
	l2.7-2.5l14.4-0.1c0.9,0,1.7-0.8,1.7-1.7L58.9,1.7z"/>
<path class="st5" d="M38.1,8.2l0.9-1.1c0.3,0.4,0.6,0.6,1,0.6c0.5,0,0.7-0.3,0.7-0.9l0-2.6h-0.8c-0.7,0-1.3-0.6-1.3-1.3l3.7,0l0,3.8
	c0,1.6-0.8,2.3-2.3,2.3C39.3,9.1,38.6,8.8,38.1,8.2z"/>
<path class="st5" d="M43.3,5.9c0-1.8,1.4-3.1,3.3-3.1c1.9,0,3.3,1.3,3.3,3.1C50,7.7,48.6,9,46.7,9C44.8,9.1,43.4,7.8,43.3,5.9z
	 M48.3,5.9c0-1-0.7-1.7-1.6-1.7c-0.9,0-1.6,0.7-1.6,1.7c0,1,0.7,1.7,1.6,1.7C47.6,7.7,48.3,7,48.3,5.9z"/>
<path class="st5" d="M56.6,7.2c0,1-0.9,1.6-2.5,1.7l-3.2,0l0-6l3,0c1.6,0,2.4,0.6,2.4,1.6c0,0.6-0.3,1-0.8,1.3
	C56.2,6,56.6,6.5,56.6,7.2z M52.6,4.1v1.1h1.2c0.6,0,0.9-0.2,0.9-0.6c0-0.4-0.3-0.6-0.9-0.6H52.6z M54.9,7.1c0-0.4-0.3-0.6-0.9-0.6
	h-1.4v1.2H54C54.6,7.7,54.9,7.5,54.9,7.1z"/>
</svg>
